<svg xmlns="http://www.w3.org/2000/svg" width="56" height="56"><g fill="none" fill-rule="evenodd"><rect width="56" height="56" fill="#E2F5EC" rx="6"/><path fill="#0CC971" fill-rule="nonzero" stroke="#E2F5EC" stroke-width=".9" d="M41.171 25.521a1.818 1.818 0 0 0 0-3.635h-4.819l.926-5.252a1.818 1.818 0 0 0-3.58-.631l-1.038 5.883h-7.287l.926-5.252a1.819 1.819 0 0 0-3.58-.631l-1.038 5.882H16.33a1.818 1.818 0 0 0 0 3.636h4.71l-1.068 6.058h-4.854a1.818 1.818 0 0 0 0 3.636h4.213l-.926 5.252a1.818 1.818 0 0 0 3.58.63l1.038-5.882h7.287l-.926 5.252a1.817 1.817 0 1 0 3.58.63l1.038-5.882h5.958a1.818 1.818 0 0 0 0-3.636h-5.317l1.069-6.058h5.46zm-10.22 6.06h-7.288l1.069-6.06h7.287l-1.068 6.06z"/></g></svg>