<svg xmlns="http://www.w3.org/2000/svg" width="24" height="24"><g fill="none" fill-rule="evenodd"><rect width="24" height="24" fill="#0CC971" rx="6"/><path fill="#FFF" fill-rule="nonzero" d="M10.946 13.236c.154.191.284.373.403.565 1.348 2.155 1.454 5.226 1.452 6.207-.001-1.012-.174-4.244-2.203-6.273-2.427-2.428-6.592-2.198-6.592-2.198s-.23 4.165 2.197 6.593c1.408 1.408 3.4 1.921 4.824 2.103l-.082-.012v3.781h1.865v-10.31c1.419-.191 3.363-.71 4.744-2.094 2.427-2.427 2.197-6.592 2.197-6.592s-4.165-.23-6.592 2.198c-1.061 1.061-1.614 2.451-1.9 3.681"/></g></svg>