<svg width="32" height="21" viewBox="0 0 32 21" fill="none" xmlns="http://www.w3.org/2000/svg">
<path fill-rule="evenodd" clip-rule="evenodd" d="M0 1.5C0 0.671573 0.671573 0 1.5 0H30.5C31.3284 0 32 0.671573 32 1.5V19.5C32 20.3284 31.3284 21 30.5 21H1.5C0.671573 21 0 20.3284 0 19.5V1.5Z" fill="#EFEFEF"/>
<path fill-rule="evenodd" clip-rule="evenodd" d="M0 1.5C0 0.671573 0.671573 0 1.5 0H30.5C31.3284 0 32 0.671573 32 1.5V19.5C32 20.3284 31.3284 21 30.5 21H1.5C0.671573 21 0 20.3284 0 19.5V1.5Z" fill="#E5E5E5" fill-opacity="0.01"/>
<path fill-rule="evenodd" clip-rule="evenodd" d="M17.3134 15.4802C20.0165 15.4932 22.4837 13.2556 22.4837 10.5335C22.4837 7.55663 20.0165 5.49901 17.3134 5.5H14.987C12.2516 5.49901 10 7.55725 10 10.5335C10 13.2562 12.2516 15.4933 14.987 15.4802H17.3134V15.4802Z" fill="url(#paint0_linear)"/>
<path fill-rule="evenodd" clip-rule="evenodd" d="M14.9967 5.91589C12.497 5.91669 10.4715 7.96124 10.4709 10.4846C10.4715 13.0076 12.497 15.0519 14.9967 15.0527C17.4968 15.0519 19.5228 13.0076 19.5231 10.4846C19.5228 7.96124 17.4968 5.91669 14.9967 5.91589V5.91589ZM12.1279 10.4846V10.4846C12.1303 9.25156 12.8934 8.20007 13.9696 7.78223V13.1864C12.8934 12.7688 12.1303 11.7179 12.1279 10.4846V10.4846ZM16.0233 13.1876V13.1876V7.78205C17.0999 8.19888 17.8642 9.25096 17.8662 10.4846C17.8642 11.7187 17.0999 12.77 16.0233 13.1876V13.1876Z" fill="#F4F6F7"/>
<defs>
<linearGradient id="paint0_linear" x1="25.0743" y1="13.5703" x2="21.8728" y2="3.10755" gradientUnits="userSpaceOnUse">
<stop stop-color="#009BE0"/>
<stop offset="1" stop-color="#006BA8"/>
</linearGradient>
</defs>
</svg>
