<svg width="32" height="21" viewBox="0 0 32 21" fill="none" xmlns="http://www.w3.org/2000/svg">
<path fill-rule="evenodd" clip-rule="evenodd" d="M0 1.5C0 0.671573 0.671573 0 1.5 0H30.5C31.3284 0 32 0.671573 32 1.5V19.5C32 20.3284 31.3284 21 30.5 21H1.5C0.671573 21 0 20.3284 0 19.5V1.5Z" fill="url(#paint0_linear)"/>
<path fill-rule="evenodd" clip-rule="evenodd" d="M0 1.5C0 0.671573 0.671573 0 1.5 0H30.5C31.3284 0 32 0.671573 32 1.5V19.5C32 20.3284 31.3284 21 30.5 21H1.5C0.671573 21 0 20.3284 0 19.5V1.5Z" fill="#E5E5E5" fill-opacity="0.01"/>
<path fill-rule="evenodd" clip-rule="evenodd" d="M7.01632 11.333C6.80583 11.5244 6.5323 11.6078 6.09938 11.6078H5.91955V9.32202H6.09938C6.5323 9.32202 6.79508 9.40001 7.01632 9.60166C7.24804 9.80918 7.38739 10.131 7.38739 10.4621C7.38739 10.7939 7.24804 11.1255 7.01632 11.333M6.23356 8.73645H5.25V12.1929H6.22838C6.74863 12.1929 7.12435 12.0695 7.45402 11.7939C7.84593 11.4676 8.07765 10.9758 8.07765 10.4671C8.07765 9.44702 7.32024 8.73645 6.23356 8.73645" fill="#212D34"/>
<path fill-rule="evenodd" clip-rule="evenodd" d="M8.38593 12.193H9.05601V8.73645H8.38593V12.193Z" fill="#212D34"/>
<path fill-rule="evenodd" clip-rule="evenodd" d="M10.6944 10.0629C10.2923 9.91322 10.1743 9.81454 10.1743 9.62771C10.1743 9.41004 10.3847 9.24459 10.6735 9.24459C10.8741 9.24459 11.0392 9.32765 11.2138 9.52449L11.5644 9.06257C11.2763 8.80898 10.9316 8.67944 10.555 8.67944C9.94711 8.67944 9.48353 9.1041 9.48353 9.66978C9.48353 10.146 9.69933 10.3898 10.3287 10.6176C10.5911 10.7109 10.7246 10.7728 10.7918 10.8145C10.9258 10.9025 10.9928 11.0271 10.9928 11.1722C10.9928 11.4523 10.7715 11.6598 10.4725 11.6598C10.153 11.6598 9.89549 11.4989 9.74127 11.1987L9.30835 11.6181C9.61705 12.0742 9.98786 12.2762 10.4978 12.2762C11.194 12.2762 11.6825 11.8103 11.6825 11.1413C11.6825 10.592 11.4566 10.3435 10.6944 10.0629" fill="#212D34"/>
<path fill-rule="evenodd" clip-rule="evenodd" d="M11.8939 10.4671C11.8939 11.4831 12.6867 12.2709 13.707 12.2709C13.9954 12.2709 14.2425 12.2138 14.5471 12.0695V11.2759C14.2793 11.5456 14.042 11.6544 13.7382 11.6544C13.0634 11.6544 12.5844 11.1621 12.5844 10.4621C12.5844 9.79849 13.0785 9.27501 13.707 9.27501C14.0266 9.27501 14.2685 9.38973 14.5471 9.66388V8.87065C14.253 8.72056 14.0112 8.65833 13.7228 8.65833C12.7077 8.65833 11.8939 9.4621 11.8939 10.4671" fill="#212D34"/>
<path fill-rule="evenodd" clip-rule="evenodd" d="M19.86 11.0582L18.944 8.73645H18.2119L19.6697 12.2817H20.0303L21.5143 8.73645H20.7879L19.86 11.0582Z" fill="#212D34"/>
<path fill-rule="evenodd" clip-rule="evenodd" d="M21.8173 12.193H23.7175V11.6078H22.4868V10.6748H23.6722V10.0893H22.4868V9.32216H23.7175V8.73645H21.8173V12.193Z" fill="#212D34"/>
<path fill-rule="evenodd" clip-rule="evenodd" d="M25.0263 10.3279H24.8305V9.28103H25.0369C25.4543 9.28103 25.6811 9.4569 25.6811 9.79329C25.6811 10.1408 25.4543 10.3279 25.0263 10.3279M26.3706 9.75697C26.3706 9.10983 25.9276 8.73645 25.1549 8.73645H24.1613V12.193H24.8305V10.8045H24.918L25.8454 12.193H26.6695L25.588 10.7369C26.0927 10.6335 26.3706 10.2862 26.3706 9.75697" fill="#212D34"/>
<g filter="url(#filter0_i)">
<path fill-rule="evenodd" clip-rule="evenodd" d="M18.4208 10.4767C18.4208 11.4922 17.6026 12.3155 16.5933 12.3155C15.584 12.3155 14.7659 11.4922 14.7659 10.4767C14.7659 9.46108 15.584 8.63794 16.5933 8.63794C17.6026 8.63794 18.4208 9.46108 18.4208 10.4767" fill="url(#paint1_linear)"/>
</g>
<defs>
<filter id="filter0_i" x="14.7659" y="8.63794" width="3.65487" height="3.67757" filterUnits="userSpaceOnUse" color-interpolation-filters="sRGB">
<feFlood flood-opacity="0" result="BackgroundImageFix"/>
<feBlend mode="normal" in="SourceGraphic" in2="BackgroundImageFix" result="shape"/>
<feColorMatrix in="SourceAlpha" type="matrix" values="0 0 0 0 0 0 0 0 0 0 0 0 0 0 0 0 0 0 127 0" result="hardAlpha"/>
<feOffset dx="1" dy="1"/>
<feComposite in2="hardAlpha" operator="arithmetic" k2="-1" k3="1"/>
<feColorMatrix type="matrix" values="0 0 0 0 0.314068 0 0 0 0 0.00146228 0 0 0 0 0.00146228 0 0 0 0.5 0"/>
<feBlend mode="normal" in2="shape" result="effect1_innerShadow"/>
</filter>
<linearGradient id="paint0_linear" x1="-16" y1="10.5" x2="3.26553" y2="39.857" gradientUnits="userSpaceOnUse">
<stop stop-color="#EDF1F3"/>
<stop offset="1" stop-color="#D3DADF"/>
</linearGradient>
<linearGradient id="paint1_linear" x1="18.8319" y1="10.8282" x2="16.6634" y2="8.26346" gradientUnits="userSpaceOnUse">
<stop stop-color="#FFA700"/>
<stop offset="1" stop-color="#E75A10"/>
</linearGradient>
</defs>
</svg>
