<svg xmlns="http://www.w3.org/2000/svg" width="56" height="56"><g fill="none" fill-rule="evenodd"><rect width="56" height="56" fill="#E2F5EC" rx="6"/><path fill="#0CC971" fill-rule="nonzero" stroke="#0CC971" stroke-width=".6" d="M42.327 28.428l-.2-.903-.006.002c-.724-2.634-2.296-3.418-4.416-4.47l-.117-.06a5.586 5.586 0 0 0 .786-2.857c0-3.11-2.53-5.64-5.64-5.64a5.648 5.648 0 0 0-5.64 5.64c0 3.11 2.53 5.64 5.64 5.64a5.612 5.612 0 0 0 3.818-1.501l.433.22c2.213 1.1 3.224 1.601 3.705 3.973a.097.097 0 0 1 .003.017l.015.073c.167.86.196 1.66.197 1.669a1.656 1.656 0 0 1-1.668 1.726H31.61c-.77-.713-1.732-1.193-2.847-1.747l-.116-.06a5.59 5.59 0 0 0 .786-2.856c0-3.11-2.53-5.64-5.64-5.64s-5.64 2.53-5.64 5.64c0 1.044.29 2.018.786 2.857l-.113.058c-2.079 1.032-3.628 1.809-4.371 4.316l-.037-.007-.16.79-.002.004s-.25 1.877-.254 2.02c-.028.902.3 1.751.924 2.393a3.27 3.27 0 0 0 2.365.997h13.005c.902 0 1.742-.355 2.363-.999a3.256 3.256 0 0 0 .917-2.399c-.007-.166-.042-.9-.193-1.742h.003s-.096-.475-.134-.632l-.19-.782-.037.009a6.545 6.545 0 0 0-.25-.61h6.464c.902 0 1.74-.354 2.362-.997a3.26 3.26 0 0 0 .917-2.4c-.008-.165-.19-1.742-.19-1.742zm-9.593-4.259a4.033 4.033 0 0 1-4.028-4.028 4.032 4.032 0 0 1 4.028-4.028 4.032 4.032 0 0 1 4.028 4.028 4.033 4.033 0 0 1-4.028 4.028zm-8.94-.904a4.033 4.033 0 0 1 4.028 4.029 4.033 4.033 0 0 1-4.029 4.028 4.033 4.033 0 0 1-4.028-4.028 4.033 4.033 0 0 1 4.028-4.029zM31.5 38.604a1.658 1.658 0 0 1-1.204.506H17.29a1.668 1.668 0 0 1-1.678-1.73c.003-.08.034-.818.224-1.752v-.004c.481-2.371 1.492-2.873 3.708-3.973l.429-.219a5.613 5.613 0 0 0 3.819 1.502 5.61 5.61 0 0 0 3.819-1.502l.43.22c2.216 1.1 3.226 1.601 3.708 3.976l.019.092c.165.857.196 1.654.196 1.663a1.66 1.66 0 0 1-.465 1.22z"/></g></svg>