<svg xmlns="http://www.w3.org/2000/svg" width="56" height="56"><g fill="none" fill-rule="evenodd"><rect width="56" height="56" fill="#E2F5EC" rx="6"/><path fill="#0CC971" fill-rule="nonzero" stroke="#0CC971" d="M28.02 14C21.943 14 17 18.945 17 25.024c0 9.121 10.121 16.901 10.552 17.228a.775.775 0 0 0 .951-.011c.43-.343 10.54-8.5 10.54-17.216C39.042 18.945 34.097 14 28.02 14zm-.01 26.632c-1.987-1.646-9.46-8.322-9.46-15.608 0-5.224 4.248-9.474 9.47-9.474 5.223 0 9.472 4.25 9.472 9.474 0 6.953-7.505 13.898-9.483 15.608zm.01-19.872a4.267 4.267 0 0 0-4.26 4.264c0 2.35 1.911 4.26 4.26 4.26a4.265 4.265 0 0 0 4.26-4.26c0-2.35-1.91-4.264-4.26-4.264zm0 6.975a2.713 2.713 0 0 1-2.71-2.711 2.715 2.715 0 0 1 2.71-2.714 2.715 2.715 0 0 1 2.71 2.714 2.713 2.713 0 0 1-2.71 2.71z"/></g></svg>