<svg xmlns="http://www.w3.org/2000/svg" width="32" height="26"><path fill="#0CC971" fill-rule="evenodd" d="M0 17.266c0 5.64 3.338 8.748 7.137 8.748 3.453 0 6.1-2.762 6.1-6.1 0-3.454-2.302-5.87-5.525-5.87-.575 0-1.381.114-1.496.114.345-3.683 3.683-8.287 7.367-10.705L9.323 0C4.03 3.799 0 10.245 0 17.266zm18.417 0c0 5.64 3.338 8.748 7.137 8.748 3.453 0 6.216-2.762 6.216-6.1 0-3.454-2.417-5.87-5.64-5.87-.576 0-1.382.114-1.497.114.46-3.683 3.684-8.287 7.367-10.705L27.741 0c-5.295 3.799-9.324 10.245-9.324 17.266z"/></svg>