<svg xmlns="http://www.w3.org/2000/svg" width="202" height="20"><g fill="none" fill-rule="evenodd"><path fill="#FFF" d="M.624 17.454c.572.338 1.95.702 3.354.702 3.432 0 5.798-2.106 5.798-5.304 0-1.846-.858-3.614-3.172-5.018-1.898-1.144-2.418-1.69-2.418-2.73 0-.936.702-1.82 2.158-1.82.988 0 1.742.286 2.236.598L9.126.944C8.606.632 7.514.32 6.37.32 2.704.32.832 2.66.832 5.468c0 1.586.91 3.432 3.302 4.888 1.482.962 2.262 1.586 2.262 2.86 0 1.144-.78 1.976-2.392 1.976-.988 0-2.184-.286-2.886-.676l-.494 2.938zM19.166.268c4.238 0 5.434 4.654 5.434 8.658 0 6.604-2.34 9.282-5.668 9.282-3.978 0-5.538-4.212-5.538-9.022 0-4.784 1.898-8.918 5.772-8.918zm-.13 2.964c-1.352 0-2.106 2.236-2.106 6.006 0 3.978.754 6.006 2.132 6.006 1.43 0 1.976-2.6 1.976-6.162 0-3.068-.468-5.85-2.002-5.85zM37.318 14.88c-.416.13-1.066.26-1.638.26-2.08 0-3.666-1.638-3.666-5.824 0-4.342 1.742-6.006 3.666-6.006.754 0 1.196.156 1.586.338l.572-2.86C37.5.554 36.668.32 35.472.32 32.066.32 28.4 2.894 28.4 9.498c0 4.966 2.132 8.658 6.604 8.658 1.196 0 2.158-.182 2.652-.416l-.338-2.86zM42.028.476V18h3.406V.476h-3.406zm14.876 13.52h-3.146L52.978 18h-3.302L53.472.476h4.082L60.96 18h-3.302l-.754-4.004zm-2.808-2.652h2.496l-.572-3.666c-.182-1.066-.416-2.808-.572-3.978h-.078c-.182 1.17-.442 2.99-.624 4.004l-.65 3.64zM65.384 18h7.904v-2.886H68.79V.476h-3.406V18zm39.02-16.524v10.816c0 4.394 1.43 6.916 5.096 6.916 3.38 0 5.07-2.444 5.07-6.942V1.476h-3.406v11.388c0 2.652-.702 3.354-1.69 3.354-.884 0-1.664-.78-1.664-3.354V1.476h-3.406zM120.008 19V1.736c.962-.208 2.262-.338 3.562-.338 2.028 0 3.614.286 4.758 1.352 1.04.91 1.508 2.366 1.508 3.848 0 1.898-.572 3.224-1.482 4.212-1.092 1.144-2.86 1.664-4.264 1.664h-.676V19h-3.406zm3.406-14.716v5.408c.156.052.338.052.546.052 1.716 0 2.496-1.222 2.496-2.86 0-1.534-.624-2.73-2.21-2.73a2.54 2.54 0 0 0-.832.13zm20.7 4.888h-4.706v2.782h1.56v4.238c-.13.052-.364.078-.676.078-1.586 0-3.224-1.508-3.224-5.72 0-4.576 1.846-6.162 4.16-6.162.858 0 1.508.13 2.002.39l.598-2.938c-.546-.26-1.534-.52-2.86-.52-3.718 0-7.358 2.652-7.436 9.022-.052 3.016.754 5.616 2.262 7.072 1.17 1.17 2.678 1.742 4.68 1.742 1.274 0 2.886-.312 3.64-.624v-9.36zM149.162 19V1.736a20.353 20.353 0 0 1 3.718-.338c1.872 0 3.536.26 4.68 1.3 1.066.962 1.378 2.132 1.378 3.64 0 1.872-.91 3.562-2.704 4.394v.052c1.196.468 1.794 1.586 2.132 3.458.338 1.95.806 4.108 1.118 4.758h-3.562c-.208-.494-.598-2.262-.858-4.186-.312-2.184-.858-2.808-2.002-2.808h-.494V19h-3.406zm3.406-14.846V9.38h.598c1.482 0 2.34-1.196 2.34-2.73 0-1.482-.598-2.548-2.132-2.6-.286 0-.624.026-.806.104zm17.242 10.842h-3.146l-.78 4.004h-3.302l3.796-17.524h4.082L173.866 19h-3.302l-.754-4.004zm-2.808-2.652h2.496l-.572-3.666c-.182-1.066-.416-2.808-.572-3.978h-.078c-.182 1.17-.442 2.99-.624 4.004l-.65 3.64zm11.288 6.604V1.736c.858-.208 2.106-.338 3.458-.338 2.21 0 3.744.52 4.862 1.56 1.508 1.352 2.288 3.666 2.288 7.072 0 3.536-.91 6.058-2.444 7.41-1.17 1.144-2.912 1.69-5.356 1.69a25.36 25.36 0 0 1-2.808-.182zm3.406-14.742v12.09c.156.052.416.052.598.052 1.638 0 3.068-1.612 3.068-6.448 0-3.588-.936-5.772-2.99-5.772-.234 0-.468 0-.676.078zm19.27 4.264h-4.004V4.44h4.212V1.476h-7.618V19h7.93v-2.964h-4.524v-4.732h4.004V8.47z"/><path fill="#0CC971" fill-rule="nonzero" stroke="#0CC971" d="M87.545 3.167a.861.861 0 0 0 .628.204l5.059-.42-11.715 13.962a.847.847 0 0 0 .104 1.188.846.846 0 0 0 1.188-.104L94.524 4.036l.417 5.035c.02.233.13.411.309.583a.81.81 0 0 0 .628.203c.466-.04.83-.448.766-.912l-.618-7.06c-.004-.046-.033-.114-.038-.16a.804.804 0 0 0-.565-.562.72.72 0 0 0-.31-.043l-7.11.575c-.466.041-.83.448-.765.912.02.233.13.412.307.56z"/></g></svg>