<svg width="32" height="21" viewBox="0 0 32 21" fill="none" xmlns="http://www.w3.org/2000/svg">
<path fill-rule="evenodd" clip-rule="evenodd" d="M0 1.5C0 0.671573 0.671573 0 1.5 0H30.5C31.3284 0 32 0.671573 32 1.5V19.5C32 20.3284 31.3284 21 30.5 21H1.5C0.671573 21 0 20.3284 0 19.5V1.5Z" fill="url(#paint0_radial)"/>
<path fill-rule="evenodd" clip-rule="evenodd" d="M0 1.5C0 0.671573 0.671573 0 1.5 0H30.5C31.3284 0 32 0.671573 32 1.5V19.5C32 20.3284 31.3284 21 30.5 21H1.5C0.671573 21 0 20.3284 0 19.5V1.5Z" fill="#E5E5E5" fill-opacity="0.01"/>
<mask id="path-3-outside-1" maskUnits="userSpaceOnUse" x="3.56793" y="7" width="25" height="7" fill="black">
<rect fill="white" x="3.56793" y="7" width="25" height="7"/>
<path fill-rule="evenodd" clip-rule="evenodd" d="M7.39637 11.0672L8.06321 9.23249H8.07755L8.72288 11.0672H7.39637ZM7.50392 8L5.56793 13H6.70084L7.10238 11.8866H9.01686L9.40406 13H10.5728L8.65835 8H7.50392ZM11.0174 8V13H12.0714V9.4916H12.0858L13.3406 13H14.2082L15.463 9.45658H15.4773V13H16.5314V8H14.9467L13.8138 11.4384H13.7995L12.602 8H11.0174ZM17.5209 8V13H21.4072V12.0756H18.6466V10.8501H21.1276V9.9958H18.6466V8.92437H21.3498V8H17.5209ZM23.4221 10.381L21.6367 13H22.8986L24.0387 11.2703L25.1573 13H26.4981L24.7127 10.388L26.3547 8H25.1214L24.0817 9.59664L23.0779 8H21.7729L23.4221 10.381Z"/>
</mask>
<path fill-rule="evenodd" clip-rule="evenodd" d="M7.39637 11.0672L8.06321 9.23249H8.07755L8.72288 11.0672H7.39637ZM7.50392 8L5.56793 13H6.70084L7.10238 11.8866H9.01686L9.40406 13H10.5728L8.65835 8H7.50392ZM11.0174 8V13H12.0714V9.4916H12.0858L13.3406 13H14.2082L15.463 9.45658H15.4773V13H16.5314V8H14.9467L13.8138 11.4384H13.7995L12.602 8H11.0174ZM17.5209 8V13H21.4072V12.0756H18.6466V10.8501H21.1276V9.9958H18.6466V8.92437H21.3498V8H17.5209ZM23.4221 10.381L21.6367 13H22.8986L24.0387 11.2703L25.1573 13H26.4981L24.7127 10.388L26.3547 8H25.1214L24.0817 9.59664L23.0779 8H21.7729L23.4221 10.381Z" fill="#1793C0" fill-opacity="0.01"/>
<path d="M7.39637 11.0672L6.45652 10.7256L5.96891 12.0672H7.39637V11.0672ZM8.06321 9.23249V8.23249H7.36266L7.12336 8.8909L8.06321 9.23249ZM8.07755 9.23249L9.0209 8.90069L8.78587 8.23249H8.07755V9.23249ZM8.72288 11.0672V12.0672H10.1347L9.66623 10.7354L8.72288 11.0672ZM7.50392 8V7H6.81878L6.57139 7.63892L7.50392 8ZM5.56793 13L4.6354 12.6389L4.10839 14H5.56793V13ZM6.70084 13V14H7.40326L7.64154 13.3392L6.70084 13ZM7.10238 11.8866V10.8866H6.39997L6.16168 11.5473L7.10238 11.8866ZM9.01686 11.8866L9.96138 11.5581L9.72785 10.8866H9.01686V11.8866ZM9.40406 13L8.45954 13.3285L8.69307 14H9.40406V13ZM10.5728 13V14H12.0265L11.5067 12.6424L10.5728 13ZM8.65835 8L9.59223 7.64242L9.34625 7H8.65835V8ZM11.0174 8V7H10.0174V8H11.0174ZM11.0174 13H10.0174V14H11.0174V13ZM12.0714 13V14H13.0714V13H12.0714ZM12.0714 9.4916V8.4916H11.0714V9.4916H12.0714ZM12.0858 9.4916L13.0274 9.15483L12.7901 8.4916H12.0858V9.4916ZM13.3406 13L12.399 13.3368L12.6362 14H13.3406V13ZM14.2082 13V14H14.9149L15.1508 13.3338L14.2082 13ZM15.463 9.45658V8.45658H14.7563L14.5204 9.12277L15.463 9.45658ZM15.4773 9.45658H16.4773V8.45658H15.4773V9.45658ZM15.4773 13H14.4773V14H15.4773V13ZM16.5314 13V14H17.5314V13H16.5314ZM16.5314 8H17.5314V7H16.5314V8ZM14.9467 8V7H14.2233L13.997 7.68706L14.9467 8ZM13.8138 11.4384V12.4384H14.5372L14.7636 11.7513L13.8138 11.4384ZM13.7995 11.4384L12.8551 11.7673L13.0888 12.4384H13.7995V11.4384ZM12.602 8L13.5464 7.67111L13.3127 7H12.602V8ZM17.5209 8V7H16.5209V8H17.5209ZM17.5209 13H16.5209V14H17.5209V13ZM21.4072 13V14H22.4072V13H21.4072ZM21.4072 12.0756H22.4072V11.0756H21.4072V12.0756ZM18.6466 12.0756H17.6466V13.0756H18.6466V12.0756ZM18.6466 10.8501V9.85014H17.6466V10.8501H18.6466ZM21.1276 10.8501V11.8501H22.1276V10.8501H21.1276ZM21.1276 9.9958H22.1276V8.9958H21.1276V9.9958ZM18.6466 9.9958H17.6466V10.9958H18.6466V9.9958ZM18.6466 8.92437V7.92437H17.6466V8.92437H18.6466ZM21.3498 8.92437V9.92437H22.3498V8.92437H21.3498ZM21.3498 8H22.3498V7H21.3498V8ZM23.4221 10.381L24.2483 10.9442L24.6354 10.3764L24.2441 9.81155L23.4221 10.381ZM21.6367 13L20.8104 12.4367L19.7447 14H21.6367V13ZM22.8986 13V14H23.4372L23.7336 13.5503L22.8986 13ZM24.0387 11.2703L24.8784 10.7273L24.0467 9.44113L23.2038 10.72L24.0387 11.2703ZM25.1573 13L24.3176 13.543L24.6131 14H25.1573V13ZM26.4981 13V14H28.393L27.3237 12.4357L26.4981 13ZM24.7127 10.388L23.8887 9.82136L23.5003 10.3863L23.8872 10.9523L24.7127 10.388ZM26.3547 8L27.1787 8.5666L28.2559 7H26.3547V8ZM25.1214 8V7H24.5793L24.2834 7.45432L25.1214 8ZM24.0817 9.59664L23.2352 10.1289L24.067 11.4519L24.9197 10.1423L24.0817 9.59664ZM23.0779 8L23.9245 7.46774L23.6304 7H23.0779V8ZM21.7729 8V7H19.8638L20.9508 8.5694L21.7729 8ZM8.33622 11.4088L9.00306 9.57408L7.12336 8.8909L6.45652 10.7256L8.33622 11.4088ZM8.06321 10.2325H8.07755V8.23249H8.06321V10.2325ZM7.1342 9.5643L7.77953 11.399L9.66623 10.7354L9.0209 8.90069L7.1342 9.5643ZM8.72288 10.0672H7.39637V12.0672H8.72288V10.0672ZM6.57139 7.63892L4.6354 12.6389L6.50047 13.3611L8.43646 8.36108L6.57139 7.63892ZM5.56793 14H6.70084V12H5.56793V14ZM7.64154 13.3392L8.04308 12.2258L6.16168 11.5473L5.76015 12.6608L7.64154 13.3392ZM7.10238 12.8866H9.01686V10.8866H7.10238V12.8866ZM8.07234 12.215L8.45954 13.3285L10.3486 12.6715L9.96138 11.5581L8.07234 12.215ZM9.40406 14H10.5728V12H9.40406V14ZM11.5067 12.6424L9.59223 7.64242L7.72446 8.35758L9.63894 13.3576L11.5067 12.6424ZM8.65835 7H7.50392V9H8.65835V7ZM10.0174 8V13H12.0174V8H10.0174ZM11.0174 14H12.0714V12H11.0174V14ZM13.0714 13V9.4916H11.0714V13H13.0714ZM12.0714 10.4916H12.0858V8.4916H12.0714V10.4916ZM11.1442 9.82836L12.399 13.3368L14.2822 12.6632L13.0274 9.15483L11.1442 9.82836ZM13.3406 14H14.2082V12H13.3406V14ZM15.1508 13.3338L16.4056 9.79039L14.5204 9.12277L13.2655 12.6662L15.1508 13.3338ZM15.463 10.4566H15.4773V8.45658H15.463V10.4566ZM14.4773 9.45658V13H16.4773V9.45658H14.4773ZM15.4773 14H16.5314V12H15.4773V14ZM17.5314 13V8H15.5314V13H17.5314ZM16.5314 7H14.9467V9H16.5314V7ZM13.997 7.68706L12.864 11.1254L14.7636 11.7513L15.8965 8.31294L13.997 7.68706ZM13.8138 10.4384H13.7995V12.4384H13.8138V10.4384ZM14.7438 11.1095L13.5464 7.67111L11.6577 8.32889L12.8551 11.7673L14.7438 11.1095ZM12.602 7H11.0174V9H12.602V7ZM16.5209 8V13H18.5209V8H16.5209ZM17.5209 14H21.4072V12H17.5209V14ZM22.4072 13V12.0756H20.4072V13H22.4072ZM21.4072 11.0756H18.6466V13.0756H21.4072V11.0756ZM19.6466 12.0756V10.8501H17.6466V12.0756H19.6466ZM18.6466 11.8501H21.1276V9.85014H18.6466V11.8501ZM22.1276 10.8501V9.9958H20.1276V10.8501H22.1276ZM21.1276 8.9958H18.6466V10.9958H21.1276V8.9958ZM19.6466 9.9958V8.92437H17.6466V9.9958H19.6466ZM18.6466 9.92437H21.3498V7.92437H18.6466V9.92437ZM22.3498 8.92437V8H20.3498V8.92437H22.3498ZM21.3498 7H17.5209V9H21.3498V7ZM22.5958 9.81768L20.8104 12.4367L22.4629 13.5633L24.2483 10.9442L22.5958 9.81768ZM21.6367 14H22.8986V12H21.6367V14ZM23.7336 13.5503L24.8737 11.8206L23.2038 10.72L22.0637 12.4497L23.7336 13.5503ZM23.199 11.8133L24.3176 13.543L25.997 12.457L24.8784 10.7273L23.199 11.8133ZM25.1573 14H26.4981V12H25.1573V14ZM27.3237 12.4357L25.5383 9.82365L23.8872 10.9523L25.6726 13.5643L27.3237 12.4357ZM25.5367 10.9546L27.1787 8.5666L25.5307 7.4334L23.8887 9.82136L25.5367 10.9546ZM26.3547 7H25.1214V9H26.3547V7ZM24.2834 7.45432L23.2437 9.05096L24.9197 10.1423L25.9594 8.54568L24.2834 7.45432ZM24.9283 9.06437L23.9245 7.46774L22.2313 8.53226L23.2352 10.1289L24.9283 9.06437ZM23.0779 7H21.7729V9H23.0779V7ZM20.9508 8.5694L22.6 10.9504L24.2441 9.81155L22.5949 7.4306L20.9508 8.5694Z" fill="white" mask="url(#path-3-outside-1)"/>
<defs>
<radialGradient id="paint0_radial" cx="0" cy="0" r="1" gradientUnits="userSpaceOnUse" gradientTransform="translate(10.7461 3.98047) rotate(90) scale(21 32)">
<stop stop-color="#71C8F2"/>
<stop offset="1" stop-color="#0071BD"/>
</radialGradient>
</defs>
</svg>
